<mxfile host="app.diagrams.net" modified="2021-07-14T07:13:26.850Z" agent="5.0 (Windows NT 6.1; WOW64) AppleWebKit/537.36 (KHTML, like Gecko) Chrome/91.0.4472.114 Safari/537.36" etag="-ysBo9pwwoIsUk6jIr7x" version="14.8.4" type="github">
  <diagram id="1_h33ChoXbpNdKGZp4Rg" name="Page-1">
    <mxGraphModel dx="566" dy="343" grid="1" gridSize="10" guides="1" tooltips="1" connect="1" arrows="1" fold="1" page="1" pageScale="1" pageWidth="827" pageHeight="1169" math="0" shadow="0">
      <root>
        <mxCell id="0" />
        <mxCell id="1" parent="0" />
        <mxCell id="SmPx-6Tg-P_B163j4ICf-10" value="&lt;font color=&quot;#0000ff&quot;&gt;部署 https://app.netlify.com/&lt;/font&gt;" style="rounded=0;whiteSpace=wrap;html=1;align=center;fillColor=none;dashed=1;verticalAlign=top;" vertex="1" parent="1">
          <mxGeometry x="250" y="270" width="300" height="60" as="geometry" />
        </mxCell>
        <mxCell id="SmPx-6Tg-P_B163j4ICf-14" value="&lt;font&gt;阿里云&lt;/font&gt;" style="rounded=1;whiteSpace=wrap;html=1;dashed=1;fillColor=none;align=center;verticalAlign=bottom;fontColor=#0000FF;" vertex="1" parent="1">
          <mxGeometry x="80" y="320" width="150" height="50" as="geometry" />
        </mxCell>
        <mxCell id="SmPx-6Tg-P_B163j4ICf-13" value="&lt;font&gt;腾讯云 / DNSpod&lt;br&gt;https://console.dnspod.cn/&lt;br&gt;&lt;/font&gt;" style="rounded=1;whiteSpace=wrap;html=1;dashed=1;fillColor=none;align=center;verticalAlign=top;fontColor=#0000FF;" vertex="1" parent="1">
          <mxGeometry x="80" y="220" width="150" height="90" as="geometry" />
        </mxCell>
        <mxCell id="SmPx-6Tg-P_B163j4ICf-1" value="sidenlux.com" style="text;html=1;strokeColor=none;fillColor=none;align=left;verticalAlign=middle;whiteSpace=wrap;rounded=0;" vertex="1" parent="1">
          <mxGeometry x="110" y="260" width="80" height="20" as="geometry" />
        </mxCell>
        <mxCell id="SmPx-6Tg-P_B163j4ICf-2" value="sidonlux.com" style="text;html=1;strokeColor=none;fillColor=none;align=left;verticalAlign=middle;whiteSpace=wrap;rounded=0;" vertex="1" parent="1">
          <mxGeometry x="110" y="280" width="80" height="20" as="geometry" />
        </mxCell>
        <mxCell id="SmPx-6Tg-P_B163j4ICf-3" value="lab.zhaojiami.cn" style="text;html=1;strokeColor=none;fillColor=none;align=left;verticalAlign=middle;whiteSpace=wrap;rounded=0;" vertex="1" parent="1">
          <mxGeometry x="110" y="320" width="90" height="20" as="geometry" />
        </mxCell>
        <mxCell id="SmPx-6Tg-P_B163j4ICf-9" value="" style="edgeStyle=orthogonalEdgeStyle;rounded=0;orthogonalLoop=1;jettySize=auto;html=1;" edge="1" parent="1" source="SmPx-6Tg-P_B163j4ICf-4" target="SmPx-6Tg-P_B163j4ICf-5">
          <mxGeometry relative="1" as="geometry" />
        </mxCell>
        <mxCell id="SmPx-6Tg-P_B163j4ICf-4" value="zhaojiami.netlify.com" style="text;html=1;strokeColor=none;fillColor=none;align=left;verticalAlign=middle;whiteSpace=wrap;rounded=0;" vertex="1" parent="1">
          <mxGeometry x="270" y="300" width="110" height="20" as="geometry" />
        </mxCell>
        <mxCell id="SmPx-6Tg-P_B163j4ICf-5" value="zhaojiami.netlify.app" style="text;html=1;strokeColor=none;fillColor=none;align=left;verticalAlign=middle;whiteSpace=wrap;rounded=0;" vertex="1" parent="1">
          <mxGeometry x="429" y="300" width="110" height="20" as="geometry" />
        </mxCell>
        <mxCell id="SmPx-6Tg-P_B163j4ICf-6" value="" style="endArrow=classic;html=1;entryX=0;entryY=0;entryDx=0;entryDy=0;exitX=1;exitY=0.5;exitDx=0;exitDy=0;" edge="1" parent="1" source="SmPx-6Tg-P_B163j4ICf-1" target="SmPx-6Tg-P_B163j4ICf-4">
          <mxGeometry width="50" height="50" relative="1" as="geometry">
            <mxPoint x="190" y="250" as="sourcePoint" />
            <mxPoint x="510" y="390" as="targetPoint" />
          </mxGeometry>
        </mxCell>
        <mxCell id="SmPx-6Tg-P_B163j4ICf-7" value="" style="endArrow=classic;html=1;entryX=0;entryY=0.5;entryDx=0;entryDy=0;exitX=1;exitY=0.5;exitDx=0;exitDy=0;" edge="1" parent="1" source="SmPx-6Tg-P_B163j4ICf-2" target="SmPx-6Tg-P_B163j4ICf-4">
          <mxGeometry width="50" height="50" relative="1" as="geometry">
            <mxPoint x="200" y="260" as="sourcePoint" />
            <mxPoint x="280" y="295" as="targetPoint" />
          </mxGeometry>
        </mxCell>
        <mxCell id="SmPx-6Tg-P_B163j4ICf-8" value="" style="endArrow=classic;html=1;entryX=0;entryY=1;entryDx=0;entryDy=0;exitX=1;exitY=0.5;exitDx=0;exitDy=0;" edge="1" parent="1" source="SmPx-6Tg-P_B163j4ICf-3" target="SmPx-6Tg-P_B163j4ICf-4">
          <mxGeometry width="50" height="50" relative="1" as="geometry">
            <mxPoint x="210" y="270" as="sourcePoint" />
            <mxPoint x="290" y="305" as="targetPoint" />
          </mxGeometry>
        </mxCell>
        <mxCell id="SmPx-6Tg-P_B163j4ICf-12" value="" style="edgeStyle=orthogonalEdgeStyle;rounded=0;orthogonalLoop=1;jettySize=auto;html=1;fontColor=#00FF00;" edge="1" parent="1" source="SmPx-6Tg-P_B163j4ICf-11" target="SmPx-6Tg-P_B163j4ICf-10">
          <mxGeometry relative="1" as="geometry" />
        </mxCell>
        <mxCell id="SmPx-6Tg-P_B163j4ICf-11" value="&lt;font&gt;代码&amp;nbsp;https://github.com/zhaojiami/nuxt-express&lt;/font&gt;" style="rounded=0;whiteSpace=wrap;html=1;align=center;fillColor=none;dashed=1;verticalAlign=top;fontColor=#0000FF;" vertex="1" parent="1">
          <mxGeometry x="250" y="220" width="300" height="30" as="geometry" />
        </mxCell>
        <mxCell id="SmPx-6Tg-P_B163j4ICf-18" value="新网站&lt;br&gt;http://www.sidenlight.com/" style="rounded=1;whiteSpace=wrap;html=1;dashed=1;fontColor=#0000FF;fillColor=none;align=center;verticalAlign=middle;" vertex="1" parent="1">
          <mxGeometry x="80" y="390" width="150" height="50" as="geometry" />
        </mxCell>
      </root>
    </mxGraphModel>
  </diagram>
</mxfile>
